<?xml version="1.0" encoding="UTF-8" standalone="no"?>
<!-- Created with Inkscape (http://www.inkscape.org/) -->

<svg
   xmlns:dc="http://purl.org/dc/elements/1.1/"
   xmlns:cc="http://creativecommons.org/ns#"
   xmlns:rdf="http://www.w3.org/1999/02/22-rdf-syntax-ns#"
   xmlns:svg="http://www.w3.org/2000/svg"
   xmlns="http://www.w3.org/2000/svg"
   xmlns:sodipodi="http://sodipodi.sourceforge.net/DTD/sodipodi-0.dtd"
   xmlns:inkscape="http://www.inkscape.org/namespaces/inkscape"
   width="100"
   height="100"
   id="svg2"
   version="1.1"
   inkscape:version="0.48.2 r9819"
   sodipodi:docname="clock_pure.svg">
  <defs
     id="defs4" />
  <sodipodi:namedview
     id="base"
     pagecolor="#ffffff"
     bordercolor="#666666"
     borderopacity="1.0"
     inkscape:pageopacity="0.0"
     inkscape:pageshadow="2"
     inkscape:zoom="2.8"
     inkscape:cx="44.568338"
     inkscape:cy="48.518422"
     inkscape:document-units="px"
     inkscape:current-layer="layer3"
     showgrid="false"
     inkscape:window-width="1920"
     inkscape:window-height="1143"
     inkscape:window-x="-2"
     inkscape:window-y="-3"
     inkscape:window-maximized="1"
     fit-margin-top="0"
     fit-margin-left="0"
     fit-margin-right="0"
     fit-margin-bottom="0" />
  <metadata
     id="metadata7">
    <rdf:RDF>
      <cc:Work
         rdf:about="">
        <dc:format>image/svg+xml</dc:format>
        <dc:type
           rdf:resource="http://purl.org/dc/dcmitype/StillImage" />
        <dc:title></dc:title>
      </cc:Work>
    </rdf:RDF>
  </metadata>
  <g
     inkscape:groupmode="layer"
     id="layer3"
     inkscape:label="Background">
    <path
       transform="translate(0.03125,-952.40625)"
       id="Hintergrund"
       style="fill:none;stroke:#808080;stroke-width:0.98233086000000003px;stroke-linecap:butt;stroke-linejoin:miter;stroke-opacity:1"
       d="m 74.321962,959.2342 -4.509945,7.81145 m -62.438896,10.12744 7.811454,4.50995 m 84.325395,20.17806 -9.01989,0 m -83.616959,24.822 7.811454,-4.51 m 60.503413,22.8148 -4.509945,-7.8114 M 49.5,1051.8711 l 0,-9.0199 m -23.821962,2.6367 4.509945,-7.8114 m 62.438896,-10.1275 -7.811454,-4.5099 m -84.325375,-20.178 9.01989,0 m 83.616939,-24.82198 -7.811454,4.50994 m -60.503413,-22.81486 4.509945,7.81145 M 50.5,952.85113 l 0,9.01989 m 0,-9.01989 0,9.01989 m 49.055278,40.49118 c 0,27.3686 -22.186656,49.5553 -49.555277,49.5553 -27.368622,0 -49.5552734,-22.1867 -49.5552734,-49.5553 0,-27.36865 22.1866514,-49.55529 49.5552734,-49.55529 27.368621,0 49.555277,22.18664 49.555277,49.55529 z"
       inkscape:connector-curvature="0" />
    <g
       id="Hour"
       inkscape:label="#g9002">
      <path
         transform="matrix(1.1005583,0,0,1.1005583,-5.8332726,-1051.5177)"
         d="m 59.346463,978.11597 a 8.586297,8.586297 0 1 1 -17.172594,0 8.586297,8.586297 0 1 1 17.172594,0 z"
         sodipodi:ry="8.586297"
         sodipodi:rx="8.586297"
         sodipodi:cy="978.11597"
         sodipodi:cx="50.760166"
         id="HotSpotHour"
         style="color:#000000;fill:#0000ff;stroke:#0000ff;stroke-width:1;stroke-linecap:butt;stroke-linejoin:miter;stroke-miterlimit:4;stroke-opacity:1;stroke-dasharray:none;stroke-dashoffset:0;marker:none;visibility:visible;display:inline;overflow:visible;enable-background:accumulate"
         sodipodi:type="arc" />
      <path
         inkscape:connector-curvature="0"
         id="path2991"
         d="M 50,50 50,25"
         style="fill:none;stroke:#ff0000;stroke-width:1.45699584px;stroke-linecap:butt;stroke-linejoin:miter;stroke-opacity:1" />
    </g>
    <g
       id="Minute"
       inkscape:label="#g9008">
      <path
         transform="matrix(1.0789434,0,0,0.79610074,-4.1911507,-758.75808)"
         d="m 59.093924,962.45862 a 8.8388348,8.8388348 0 1 1 -17.67767,0 8.8388348,8.8388348 0 1 1 17.67767,0 z"
         sodipodi:ry="8.8388348"
         sodipodi:rx="8.8388348"
         sodipodi:cy="962.45862"
         sodipodi:cx="50.255089"
         id="HotSpotMinute"
         style="color:#000000;fill:#0000ff;stroke:#0000ff;stroke-width:1;stroke-linecap:butt;stroke-linejoin:miter;stroke-miterlimit:4;stroke-opacity:1;stroke-dasharray:none;stroke-dashoffset:0;marker:none;visibility:visible;display:inline;overflow:visible;enable-background:accumulate"
         sodipodi:type="arc" />
      <path
         inkscape:connector-curvature="0"
         id="path2989"
         d="M 50,50 50,5"
         style="fill:none;stroke:#ff0000;stroke-width:0.92645031px;stroke-linecap:butt;stroke-linejoin:miter;stroke-opacity:1" />
    </g>
  </g>
</svg>
