<?xml version="1.0" encoding="UTF-8" standalone="no"?>

<svg
   xmlns:dc="http://purl.org/dc/elements/1.1/"
   xmlns:cc="http://creativecommons.org/ns#"
   xmlns:rdf="http://www.w3.org/1999/02/22-rdf-syntax-ns#"
   xmlns:svg="http://www.w3.org/2000/svg"
   xmlns="http://www.w3.org/2000/svg"
   xmlns:xlink="http://www.w3.org/1999/xlink"
   version="1.1"
   width="48"
   height="48"
   id="svg2">
  <metadata
     id="metadata7">
    <rdf:RDF>
      <cc:Work
         rdf:about="">
        <dc:format>image/svg+xml</dc:format>
        <dc:type
           rdf:resource="http://purl.org/dc/dcmitype/StillImage" />
        <dc:title></dc:title>
      </cc:Work>
    </rdf:RDF>
  </metadata>
  <g stroke="#FFFFFF" >
  <line id="line1"     x1="2"  x2="46" y1="9"    y2="9"     stroke-linecap="round" stroke-linejoin="round" stroke-width="3"   fill="none"/>
  <line id="line2" 	   x1="2"  x2="46" y1="9"    y2="9"     stroke-linecap="round" stroke-linejoin="round" stroke-width="3"   fill="none"/>
  <line id="line3" 	   x1="2"  x2="46" y1="9"    y2="9"     stroke-linecap="round" stroke-linejoin="round" stroke-width="3"   fill="none"/>
  <line id="line4" 	   x1="2"  x2="46" y1="9"    y2="9"     stroke-linecap="round" stroke-linejoin="round" stroke-width="3"   fill="none"/>
  <line id="line5" 	   x1="2"  x2="46" y1="9"    y2="9"     stroke-linecap="round" stroke-linejoin="round" stroke-width="3"   fill="none"/>
  <line id="line6" 	   x1="2"  x2="46" y1="9"    y2="9"     stroke-linecap="round" stroke-linejoin="round" stroke-width="3"   fill="none"/>
  <line id="line7" 	   x1="2"  x2="46" y1="9"    y2="9"     stroke-linecap="round" stroke-linejoin="round" stroke-width="3"   fill="none"/>
  <line id="line8" 	   x1="2"  x2="46" y1="9"    y2="9"     stroke-linecap="round" stroke-linejoin="round" stroke-width="3"   fill="none"/>
  <line id="line9" 	   x1="2"  x2="46" y1="9"    y2="9"     stroke-linecap="round" stroke-linejoin="round" stroke-width="3"   fill="none"/>
  <line id="line10"    x1="2"  x2="46" y1="9"    y2="9"     stroke-linecap="round" stroke-linejoin="round" stroke-width="3"   fill="none"/>
  <line id="line11"    x1="2"  x2="46" y1="9"    y2="9"     stroke-linecap="round" stroke-linejoin="round" stroke-width="3"   fill="none"/>
  <line id="line12"      x1="2"  x2="46" y1="9"    y2="9"   stroke-linecap="round" stroke-linejoin="round" stroke-width="3"   fill="none"/>
  <line id="line13"      x1="2"  x2="46" y1="9"    y2="9"   stroke-linecap="round" stroke-linejoin="round" stroke-width="3"   fill="none"/>
  <line id="line14"      x1="2"  x2="46" y1="9"    y2="9"   stroke-linecap="round" stroke-linejoin="round" stroke-width="3"   fill="none"/>
  <line id="line15"      x1="2"  x2="46" y1="9"    y2="9"   stroke-linecap="round" stroke-linejoin="round" stroke-width="3"   fill="none"/>
  <line id="line16"      x1="2"  x2="46" y1="9"    y2="9"   stroke-linecap="round" stroke-linejoin="round" stroke-width="3"   fill="none"/>
  <line id="line17"      x1="2"  x2="46" y1="9"    y2="9"   stroke-linecap="round" stroke-linejoin="round" stroke-width="3"   fill="none"/>
  <line id="line18"      x1="2"  x2="46" y1="9"    y2="9"   stroke-linecap="round" stroke-linejoin="round" stroke-width="3"   fill="none"/>
  <line id="line19"      x1="2"  x2="46" y1="9"    y2="9"   stroke-linecap="round" stroke-linejoin="round" stroke-width="3"   fill="none"/>
  <line id="line20"      x1="2"  x2="46" y1="9"    y2="9"   stroke-linecap="round" stroke-linejoin="round" stroke-width="3"   fill="none"/>
  <path id="windowframe" d="m3,5 l42,0 l0,38 l-42,0 l0,-38" stroke-linecap="round" stroke-linejoin="round" stroke-width="3" stroke="#FEFEFE" fill="none"  />
  <rect id="toprect"     x="1" y="5" width="46" height="4"  stroke-linecap="round" stroke-linejoin="round" stroke-width="3" stroke="#FEFEFE" fill="#FEFEFE" />
  <line id="middleline" x1="24" x2="24" y1="5"    y2="43"   stroke-linecap="round" stroke-linejoin="round" stroke-width="2" stroke="#FEFEFE" fill="none"/>
  <line id="grip"       x1="22" x2="26" y1="25"   y2="25"   stroke-linecap="round" stroke-linejoin="round" stroke-width="3" stroke="#FEFEFE" fill="none"/>
  </g>
</svg>
