<?xml version="1.0" encoding="UTF-8" standalone="no"?>
<!-- Created with Inkscape (http://www.inkscape.org/) -->
<!--
   width="994.09375"
   height="633.25"
     -->
<svg id="svg2" xmlns:rdf="http://www.w3.org/1999/02/22-rdf-syntax-ns#" xmlns="http://www.w3.org/2000/svg" height="100%" width="100%" version="1.1" xmlns:cc="http://creativecommons.org/ns#" xmlns:dc="http://purl.org/dc/elements/1.1/" viewBox="0 0 994 633">
 <metadata id="metadata7">
  <rdf:RDF>
   <cc:Work rdf:about="">
    <dc:format>image/svg+xml</dc:format>
    <dc:type rdf:resource="http://purl.org/dc/dcmitype/StillImage"/>
    <dc:title/>
   </cc:Work>
  </rdf:RDF>
 </metadata>
 <g id="layer4" transform="translate(165.9375,-111.5)" display="none">
  <rect id="rect4429" stroke-linejoin="miter" style="enable-background:accumulate;color:#000000;" stroke-dasharray="none" stroke-dashoffset="0" height="529.86" width="990.67" stroke="#F00" stroke-linecap="butt" stroke-miterlimit="4" y="213.2" x="-164.23" stroke-width="3.4102" fill="#000"/>
 </g>
 <g id="layer1" stroke-linejoin="miter" stroke="#FFF" stroke-linecap="butt" stroke-miterlimit="4" fill="none" stroke-dasharray="none" stroke-dashoffset="0" transform="translate(165.9375,-111.5)">
  <rect id="rect3953" style="enable-background:accumulate;color:#000000;" height="20" width="20" y="422.6" x="428.89" stroke-width="1.25"/>
  <rect id="rect3953-8" style="enable-background:accumulate;color:#000000;" height="20" width="20" y="422.6" x="468.89" stroke-width="1.25"/>
  <rect id="rect3953-4" style="enable-background:accumulate;color:#000000;" height="20" width="20" y="422.6" x="508.89" stroke-width="1.25"/>
  <rect id="rect3953-1" style="enable-background:accumulate;color:#000000;" height="20" width="20" y="510.6" x="428.89" stroke-width="1.25"/>
  <rect id="rect3953-6" style="enable-background:accumulate;color:#000000;" height="20" width="20" y="510.6" x="468.89" stroke-width="1.25"/>
  <rect id="rect3953-0" style="enable-background:accumulate;color:#000000;" height="20" width="20" y="510.6" x="508.89" stroke-width="1.25"/>
  <rect id="rect4001" style="enable-background:accumulate;color:#000000;" height="60" width="140" y="446.6" x="408.89" stroke-width="1.25"/>
  <rect id="rect4003" style="enable-background:accumulate;color:#000000;" height="40" width="40" y="586.6" x="648.89" stroke-width="1.25"/>
  <rect id="rect4005" style="enable-background:accumulate;color:#000000;" height="47.143" width="101.43" y="376.6" x="628.89" stroke-width="1.25"/>
  <rect id="rect4007" style="enable-background:accumulate;color:#000000;" height="30" width="25.714" y="345.17" x="667.46" stroke-width="1.25"/>
  <rect id="rect4009" style="enable-background:accumulate;color:#000000;" height="61.429" width="135.71" y="233.74" x="651.75" stroke-width="1.25"/>
  <rect id="rect4011" style="enable-background:accumulate;color:#000000;" height="41.429" width="31.429" y="240.88" x="744.6" stroke-width="1.25"/>
  <rect id="rect4013" style="enable-background:accumulate;color:#000000;" height="31.429" width="40" y="410.88" x="-115.4" stroke-width="1.25"/>
  <rect id="rect4015" style="enable-background:accumulate;color:#000000;" height="62.857" width="65.714" y="379.46" x="-18.253" stroke-width="1.25"/>
  <rect id="rect4017" style="enable-background:accumulate;color:#000000;" height="47.143" width="112.86" y="253.74" x="-143.97" stroke-width="1.25"/>
  <rect id="rect4019" style="enable-background:accumulate;color:#000000;" height="32.857" width="98.571" y="260.46" x="-136.82" stroke-width="1.25"/>
  <rect id="rect4021" style="enable-background:accumulate;color:#000000;" height="34.286" width="24.286" y="253.74" x="-1.1103" stroke-width="1.25"/>
  <rect id="rect4023" style="enable-background:accumulate;color:#000000;" height="131.43" width="134.29" y="559.46" x="-98.253" stroke-width="1.25"/>
  <rect id="rect4025" style="enable-background:accumulate;color:#000000;" height="30" width="38.571" y="653.74" x="-82.539" stroke-width="1.25"/>
  <rect id="rect4027" style="enable-background:accumulate;color:#000000;" height="30" width="38.571" y="655.17" x="-19.682" stroke-width="1.25"/>
  <rect id="rect4178" style="enable-background:accumulate;color:#000000;" height="24.286" width="191.43" y="431.17" x="600.32" stroke-width="1.25"/>
  <path id="path4180" style="enable-background:accumulate;color:#000000;" d="m193.18,388.03,0,214.29,84.286,0,0,45.714" stroke-width="1.25000000000000000"/>
  <path id="path4191" style="enable-background:accumulate;color:#000000;" d="m192.82,513.38-43.214,0" stroke-width="1.25000000000000000"/>
  <path id="path4202" style="enable-background:accumulate;color:#000000;" d="m192.82,435.53-43.571,0" stroke-width="1.25000000000000000"/>
  <path id="path4213" style="enable-background:accumulate;color:#000000;" d="m183.47,474.1,0,35" stroke-width="1.25000000000000000"/>
  <path id="path4224" style="enable-background:accumulate;color:#000000;" d="m192.82,553.03-43.214,0" stroke-width="1.25000000000000000"/>
  <path id="path4235" style="enable-background:accumulate;color:#000000;" d="m193.89,593.74-43.929,0" stroke-width="1.25000000000000000"/>
  <path id="path4246" style="enable-background:accumulate;color:#000000;" d="m88.89,690.88-244.29,0" stroke-width="1.25000000000000000"/>
  <path id="path4257" style="enable-background:accumulate;color:#000000;" d="m51.033,253.03-200.71,0" stroke-width="1.25000000000000000"/>
  <path id="path4268" style="enable-background:accumulate;color:#000000;" d="m728.89,566.6,50,0,0,140-180,0,0-50,130,0z" stroke-width="1.25000000000000000"/>
  <path id="path4279" style="enable-background:accumulate;color:#000000;" d="m728.89,576.6,40,0,0,120-160,0,0-40" stroke-width="1.25000000000000000"/>
  <path id="path4290" style="enable-background:accumulate;color:#000000;" d="m648.89,656.6,0,30" stroke-width="1.25000000000000000"/>
  <path id="path4301" style="enable-background:accumulate;color:#000000;" d="m688.89,656.6,0,30" stroke-width="1.25000000000000000"/>
  <path id="path4312" style="enable-background:accumulate;color:#000000;" d="m728.89,656.6,0,30" stroke-width="1.25000000000000000"/>
  <path id="path4323" style="enable-background:accumulate;color:#000000;" d="m728.89,616.6,30,0" stroke-width="1.25000000000000000"/>
  <path id="path4334" style="enable-background:accumulate;color:#000000;" d="m728.89,656.6,30,0" stroke-width="1.25000000000000000"/>
  <path id="path4213-5" style="enable-background:accumulate;color:#000000;" d="m171.69,474.1,0,35" stroke-width="1.25000000000000000"/>
  <path id="path4213-2" style="enable-background:accumulate;color:#000000;" d="m159.9,474.1,0,35" stroke-width="1.25000000000000000"/>
  <path id="path4381" style="enable-background:accumulate;color:#000000;" d="m260,519.86c0,1.3807-1.1193,2.5-2.5,2.5s-2.5-1.1193-2.5-2.5,1.1193-2.5,2.5-2.5,2.5,1.1193,2.5,2.5z" transform="matrix(2,0,0,2,-331.11031,-476.61111)" stroke-width="0.625"/>
  <path id="path4381-4" style="enable-background:accumulate;color:#000000;" d="m260,519.86c0,1.3807-1.1193,2.5-2.5,2.5s-2.5-1.1193-2.5-2.5,1.1193-2.5,2.5-2.5,2.5,1.1193,2.5,2.5z" transform="matrix(2,0,0,2,-354.68174,-455.89683)" stroke-width="0.625"/>
  <path id="path4381-0" style="enable-background:accumulate;color:#000000;" d="m260,519.86c0,1.3807-1.1193,2.5-2.5,2.5s-2.5-1.1193-2.5-2.5,1.1193-2.5,2.5-2.5,2.5,1.1193,2.5,2.5z" transform="matrix(2.9903028,0,0,2.7882722,-588.58903,-867.6604)" stroke-width="0.43289727"/>
  <path id="path4381-7" style="enable-background:accumulate;color:#000000;" d="m260,519.86c0,1.3807-1.1193,2.5-2.5,2.5s-2.5-1.1193-2.5-2.5,1.1193-2.5,2.5-2.5,2.5,1.1193,2.5,2.5z" transform="matrix(2.8286994,0,0,2.6266688,-566.00009,-800.82584)" stroke-width="0.45857878"/>
  <rect id="rect4415" style="enable-background:accumulate;color:#000000;" height="28.571" width="30.714" y="440.17" x="156.03" stroke-width="1.25"/>
  <path id="path4417" style="enable-background:accumulate;color:#000000;" d="m175.77,376.7c0,1.8829-1.5264,3.4093-3.4093,3.4093s-3.4093-1.5264-3.4093-3.4093,1.5264-3.4093,3.4093-3.4093,3.4093,1.5264,3.4093,3.4093z" transform="matrix(2.3560312,0,0,2.6152906,-394.95966,-710.03034)" stroke-width="0.50356962"/>
  <path id="path4516-4" style="enable-background:accumulate;color:#000000;" d="m-142.77,450.98,40,40,0-40-40,40,0-40,40,0,0,40-40,0" stroke-width="1.25000000000000000"/>
  <path id="path4516-39" style="enable-background:accumulate;color:#000000;" d="m-100.76,450.98,40,40,0-40-40,40,0-40,40,0,0,40-40,0" stroke-width="1.25000000000000000"/>
  <path id="path4516-19" style="enable-background:accumulate;color:#000000;" d="m-58.755,450.98,40,40,0-40-40,40,0-40,40,0,0,40-40,0" stroke-width="1.25000000000000000"/>
  <path id="path4516-0" style="enable-background:accumulate;color:#000000;" d="m-16.75,450.98,40,40,0-40-40,40,0-40,40,0,0,40-40,0" stroke-width="1.25000000000000000"/>
  <path id="path4630" style="enable-background:accumulate;color:#000000;" d="m-31.11,560.14,0,130.31" stroke-width="1.25000000000000000"/>
  <path id="path4516" style="enable-background:accumulate;color:#000000;" d="m473.18,234.83,40,40,0-40-40,40,0-40,40,0,0,40-40,0" stroke-width="1.25000000000000000"/>
  <path id="path4516-1" style="enable-background:accumulate;color:#000000;" d="m515.1,235.06,40,40,0-40-40,40,0-40,40,0,0,40-40,0" stroke-width="1.25000000000000000"/>
  <path id="path4516-5" style="enable-background:accumulate;color:#000000;" d="m195.38,390.88,40,40,0-40-40,40,0-40,40,0,0,40-40,0" stroke-width="1.25000000000000000"/>
  <path id="path4516-3" style="enable-background:accumulate;color:#000000;" d="m237.3,390.88,40,40,0-40-40,40,0-40,40,0,0,40-40,0" stroke-width="1.25000000000000000"/>
  <path id="path4618" style="enable-background:accumulate;color:#000000;" d="m-96.11,442.67,0-11.429" stroke-width="1.25000000000000000"/>
  <rect id="rect4626" style="enable-background:accumulate;color:#000000;" height="25" width="32.857" y="414.1" x="-111.82" stroke-width="1.25"/>
  <path id="path4628" style="enable-background:accumulate;color:#000000;" d="m188.75,444.42c0,8.5308-7.1954,15.446-16.071,15.446-8.876,0-16.071-6.9156-16.071-15.446,0-8.5308,7.1954-15.446,16.071-15.446,8.876,0,16.071,6.9156,16.071,15.446z" transform="matrix(1.5935829,0,0,1.5935829,-260.93079,-297.50818)" stroke-width="0.78439597"/>
 </g>
 <g id="layer3" stroke-linejoin="miter" stroke="#CCC" stroke-linecap="butt" stroke-dasharray="none" stroke-miterlimit="4" fill="none" transform="translate(165.9375,-111.5)">
  <path id="path3810" d="m388.89,226.6,420,0,0,500-240,0,0-80-480,0,0,80-240,0,0-500,460,0" stroke-width="14.80000019"/>
  <path id="path3812" d="m808.89,426.6-240,0,0-40-200,0" stroke-width="6.5999999"/>
  <path id="path3814" style="enable-background:accumulate;color:#000000;" d="m288.89,386.6-160,0" stroke-dashoffset="0" stroke-width="6.5999999"/>
  <path id="path3833" style="enable-background:accumulate;color:#000000;" d="m48.89,366.6,0,80-200,0" stroke-dashoffset="0" stroke-width="6.5999999"/>
  <path id="path3841" style="enable-background:accumulate;color:#000000;" d="m48.89,306.6,0-80" stroke-dashoffset="0" stroke-width="6.5999999"/>
  <path id="path3849" style="enable-background:accumulate;color:#000000;" d="m148.89,386.6,0,260" stroke-dashoffset="0" stroke-width="6.5999999"/>
  <path id="path3857" style="enable-background:accumulate;color:#000000;" d="m468.89,386.6,0-20" stroke-dashoffset="0" stroke-width="6.5999999"/>
  <path id="path3865" style="enable-background:accumulate;color:#000000;" d="m468.89,306.6,0-80" stroke-dashoffset="0" stroke-width="6.5999999"/>
 </g>
 <g id="layer5" stroke-linejoin="miter" stroke="#000" stroke-linecap="butt" stroke-dasharray="none" fill="none" stroke-miterlimit="4" stroke-width="8.60000038" transform="translate(165.9375,-111.5)">
  <path id="path3873" d="m808.89,326.6,0,80"/>
  <path id="path3875" style="enable-background:accumulate;color:#000000;" d="m808.89,486.6,0,100" stroke-dashoffset="0"/>
  <path id="path3900" style="enable-background:accumulate;color:#000000;" d="m388.89,646.6,140,0" stroke-dashoffset="0"/>
  <path id="path3908" style="enable-background:accumulate;color:#000000;" d="m-151.11,426.6,0-60" stroke-dashoffset="0"/>
  <path id="path3916" style="enable-background:accumulate;color:#000000;" d="m-151.11,506.6,0,60" stroke-dashoffset="0"/>
  <path id="path3935" style="enable-background:accumulate;color:#000000;" d="m268.89,646.6-60,0" stroke-dashoffset="0"/>
  <path id="path3943" style="enable-background:accumulate;color:#000000;" d="m148.89,646.6-40,0" stroke-dashoffset="0"/>
 </g>
</svg>
