<?xml version="1.0" encoding="UTF-8" standalone="no"?>
<!-- Created with Inkscape (http://www.inkscape.org/) -->
<svg xmlns:rdf="http://www.w3.org/1999/02/22-rdf-syntax-ns#" xmlns="http://www.w3.org/2000/svg" height="297mm" width="210mm" version="1.1" xmlns:cc="http://creativecommons.org/ns#" xmlns:dc="http://purl.org/dc/elements/1.1/">
 <metadata>
  <rdf:RDF>
   <cc:Work rdf:about="">
    <dc:format>image/svg+xml</dc:format>
    <dc:type rdf:resource="http://purl.org/dc/dcmitype/StillImage"/>
    <dc:title/>
   </cc:Work>
  </rdf:RDF>
 </metadata>
 <g transform="translate(5.7142857,-55.714286)" fill="#000">
  <path d="m198.87,299.29s-28.621,19.113-51.872,19.113c-24.063,0-43.633-4.8988-58.71-14.696-15.077-9.7976-26.55-23.986-34.419-42.567-7.8686-18.58-11.803-38.531-11.803-59.852-0.00003-23.25,4.4419-43.531,13.326-60.842,8.8838-17.311,21.524-30.459,37.921-39.444,16.397-8.9852,34.444-13.478,54.141-13.478,22.336,0.00024,34.921,9.9142,34.921,9.9142l-8.3698,22.199s-12.235-6.8316-27.16-6.8318c-17.159,0.00019-31.5,4.1122-43.023,12.336-11.524,8.2241-19.621,19.266-24.291,33.124-4.6704,13.859-7.0056,28.149-7.0056,42.871-0.00007,18.986,2.7666,35.561,8.3001,49.724,5.5333,14.163,14.138,24.748,25.814,31.754,11.676,7.0056,24.316,10.508,37.922,10.508,16.549,0.00002,42.033-14.316,42.033-14.316z"/>
  <path d="m114.27,169.31c0-13.828,3.8437-24.07,11.531-30.727,6.4218-5.5312,14.25-8.2968,23.484-8.2969,10.266,0.00008,18.656,3.3634,25.172,10.09,6.5156,6.7266,9.7734,16.02,9.7734,27.879-0.00008,9.6094-1.4415,17.168-4.3242,22.676-2.8829,5.5078-7.0782,9.7852-12.586,12.832-5.5079,3.0469-11.52,4.5703-18.035,4.5703-10.453,0-18.902-3.3516-25.348-10.055-6.4453-6.7031-9.668-16.359-9.668-28.969zm13.008,0c-0.00001,9.5625,2.0859,16.723,6.2578,21.48,4.1718,4.7578,9.4218,7.1367,15.75,7.1367,6.2812,0.00001,11.508-2.3906,15.68-7.1719,4.1718-4.7812,6.2578-12.07,6.2578-21.867-0.00007-9.2343-2.0977-16.23-6.293-20.988-4.1954-4.7578-9.4102-7.1367-15.645-7.1367-6.3282,0.00006-11.578,2.3672-15.75,7.1016-4.1719,4.7344-6.2578,11.883-6.2578,21.445z"/>
  <path d="m205.14,177.51,0-74.672,11.32,0,0,10.477c2.3437-3.6562,5.4609-6.5976,9.3516-8.8242,3.8906-2.2265,8.3203-3.3398,13.289-3.3398,5.5312,0.00008,10.066,1.1485,13.605,3.4453,3.539,2.2969,6.0351,5.5079,7.4883,9.6328,5.9062-8.7187,13.594-13.078,23.062-13.078,7.4062,0.00008,13.101,2.0509,17.086,6.1524,3.9843,4.1016,5.9764,10.418,5.9766,18.949v51.258h-12.586v-47.039c-0.0001-5.0624-0.41026-8.707-1.2305-10.934-0.82041-2.2265-2.3087-4.0195-4.4648-5.3789-2.1563-1.3593-4.6876-2.039-7.5938-2.0391-5.2501,0.00007-9.6094,1.7462-13.078,5.2383-3.4688,3.4922-5.2032,9.0821-5.2031,16.77v43.383h-12.656v-48.516c-0.00006-5.6249-1.0313-9.8437-3.0938-12.656-2.0626-2.8124-5.4376-4.2187-10.125-4.2188-3.5625,0.00007-6.8555,0.93757-9.8789,2.8125-3.0235,1.8751-5.2149,4.6172-6.5742,8.2266-1.3594,3.6094-2.0391,8.8125-2.0391,15.609v38.742z"/>
  <path d="m382.35,160.6,13.078,1.6172c-2.0626,7.6406-5.8829,13.57-11.461,17.789-5.5782,4.2188-12.703,6.3281-21.375,6.3281-10.922,0-19.582-3.3633-25.98-10.09-6.3984-6.7266-9.5977-16.16-9.5976-28.301-0.00001-12.562,3.2344-22.312,9.7031-29.25,6.4687-6.9374,14.859-10.406,25.172-10.406,9.9843,0.00008,18.141,3.3985,24.469,10.195,6.328,6.7969,9.4921,16.359,9.4922,28.688-0.00008,0.75003-0.0235,1.875-0.0703,3.375h-55.688c0.46873,8.2032,2.789,14.484,6.9609,18.844,4.1718,4.3594,9.375,6.5391,15.609,6.5391,4.6406,0.00001,8.6015-1.2187,11.883-3.6562,3.2812-2.4375,5.8828-6.3281,7.8047-11.672zm-41.555-20.461,41.695,0c-0.56256-6.2812-2.1563-10.992-4.7812-14.133-4.0313-4.8749-9.2579-7.3124-15.68-7.3125-5.8125,0.00007-10.699,1.9454-14.66,5.8359-3.961,3.8907-6.1524,9.0938-6.5742,15.609z"/>
  <path d="m444.74,195.33,1.8281,11.18c-3.5625,0.75-6.75,1.125-9.5625,1.125-4.5938,0-8.1563-0.72656-10.688-2.1797-2.5313-1.4531-4.3125-3.3633-5.3438-5.7305s-1.5469-7.3476-1.5469-14.941v-42.961h-9.2812v-9.8438h9.2812v-18.492l12.586-7.5938v26.086h12.727v9.8438h-12.727v43.664c-0.00003,3.6094,0.22263,5.9297,0.66797,6.9609,0.44528,1.0313,1.1718,1.8516,2.1797,2.4609,1.0078,0.60939,2.4492,0.91408,4.3242,0.91406,1.4062,0.00002,3.2578-0.16405,5.5547-0.49218z"/>
  <path d="m231.43,305.22-39.938-103.08,14.766,0,26.789,74.883c2.1562,6,3.9609,11.625,5.4141,16.875,1.5937-5.625,3.4453-11.25,5.5547-16.875l27.844-74.883h13.922l-40.359,103.08z"/>
  <path d="m297.18,207.84,0-14.555,12.656,0,0,14.555zm0,88.523,0-74.672,12.656,0,0,74.672z"/>
  <path d="m326.97,265.5,12.516-1.9688c0.70311,5.0156,2.6601,8.8594,5.8711,11.531,3.2109,2.6719,7.6992,4.0078,13.465,4.0078,5.8125,0.00001,10.125-1.1836,12.938-3.5508,2.8124-2.3672,4.2187-5.1445,4.2188-8.332-0.00005-2.8594-1.2422-5.1094-3.7266-6.75-1.7344-1.125-6.0469-2.5547-12.938-4.2891-9.2813-2.3437-15.715-4.371-19.301-6.082-3.586-1.7109-6.3047-4.0781-8.1562-7.1016-1.8516-3.0234-2.7774-6.3632-2.7774-10.02,0-3.3281,0.76171-6.4101,2.2852-9.2461,1.5234-2.8359,3.5976-5.1913,6.2227-7.0664,1.9687-1.453,4.6523-2.6835,8.0508-3.6914,3.3984-1.0077,7.0429-1.5116,10.934-1.5117,5.8593,0.00008,11.004,0.84383,15.434,2.5312,4.4296,1.6876,7.6992,3.9727,9.8086,6.8555,2.1093,2.8829,3.5624,6.7384,4.3594,11.566l-12.375,1.6875c-0.56255-3.8437-2.1914-6.8437-4.8867-9-2.6954-2.1562-6.5039-3.2343-11.426-3.2344-5.8125,0.00007-9.961,0.96101-12.445,2.8828-2.4844,1.9219-3.7266,4.1719-3.7266,6.75-0.00002,1.6407,0.5156,3.1172,1.5469,4.4297,1.0312,1.3594,2.6484,2.4844,4.8516,3.375,1.2656,0.4688,4.9922,1.5469,11.18,3.2344,8.9531,2.3907,15.199,4.3477,18.738,5.8711,3.539,1.5235,6.3164,3.7383,8.332,6.6445,2.0156,2.9063,3.0234,6.5157,3.0234,10.828-0.00006,4.2188-1.2305,8.1914-3.6914,11.918-2.461,3.7266-6.0118,6.6094-10.652,8.6484-4.6407,2.0391-9.8907,3.0586-15.75,3.0586-9.7032,0-17.098-2.0156-22.184-6.0469-5.086-4.0312-8.332-10.008-9.7383-17.93z"/>
  <path d="m450.68,289.22,0-10.969c-5.8126,8.4375-13.711,12.656-23.695,12.656-4.4063,0-8.5196-0.84375-12.34-2.5312-3.8203-1.6875-6.6563-3.8086-8.5078-6.3633-1.8516-2.5547-3.1524-5.6836-3.9023-9.3867-0.51564-2.4844-0.77345-6.4218-0.77344-11.812v-46.266h12.656v41.414c-0.00002,6.6094,0.25779,11.063,0.77344,13.359,0.79685,3.3281,2.4844,5.9414,5.0625,7.8398s5.7656,2.8477,9.5625,2.8476c3.7968,0.00001,7.3593-0.97264,10.688-2.918,3.3281-1.9453,5.6835-4.5937,7.0664-7.9453,1.3828-3.3515,2.0742-8.2148,2.0742-14.59v-40.008h12.656v74.672z"/>
  <path d="m602.86,205.22-60.924-39.926-60.505,41.354,39.926-60.924-41.354-60.505,60.924,39.926,60.505-41.354-39.926,60.923z" transform="matrix(0.23063621,-0.23063621,0.23063621,0.23063621,348.93747,260.44935)"/>
  <path d="m602.86,205.22-60.924-39.926-60.505,41.354,39.926-60.924-41.354-60.505,60.924,39.926,60.505-41.354-39.926,60.923z" transform="matrix(0.23063621,-0.23063621,0.23063621,0.23063621,393.91984,330.88524)"/>
  <path d="m602.86,205.22-60.924-39.926-60.505,41.354,39.926-60.924-41.354-60.505,60.924,39.926,60.505-41.354-39.926,60.923z" transform="matrix(0.23063621,-0.23063621,0.23063621,0.23063621,446.20556,279.74239)"/>
  <path d="m602.86,205.22-60.924-39.926-60.505,41.354,39.926-60.924-41.354-60.505,60.924,39.926,60.505-41.354-39.926,60.923z" transform="matrix(0.23063621,-0.23063621,0.23063621,0.23063621,500.77699,315.45667)"/>
 </g>
 <g fill="#FFF" transform="translate(763.96448,-64.889511)">
  <path d="m198.87,299.29s-28.621,19.113-51.872,19.113c-24.063,0-43.633-4.8988-58.71-14.696-15.077-9.7976-26.55-23.986-34.419-42.567-7.8686-18.58-11.803-38.531-11.803-59.852-0.00003-23.25,4.4419-43.531,13.326-60.842,8.8838-17.311,21.524-30.459,37.921-39.444,16.397-8.9852,34.444-13.478,54.141-13.478,22.336,0.00024,34.921,9.9142,34.921,9.9142l-8.3698,22.199s-12.235-6.8316-27.16-6.8318c-17.159,0.00019-31.5,4.1122-43.023,12.336-11.524,8.2241-19.621,19.266-24.291,33.124-4.6704,13.859-7.0056,28.149-7.0056,42.871-0.00007,18.986,2.7666,35.561,8.3001,49.724,5.5333,14.163,14.138,24.748,25.814,31.754,11.676,7.0056,24.316,10.508,37.922,10.508,16.549,0.00002,42.033-14.316,42.033-14.316z"/>
  <path d="m114.27,169.31c0-13.828,3.8437-24.07,11.531-30.727,6.4218-5.5312,14.25-8.2968,23.484-8.2969,10.266,0.00008,18.656,3.3634,25.172,10.09,6.5156,6.7266,9.7734,16.02,9.7734,27.879-0.00008,9.6094-1.4415,17.168-4.3242,22.676-2.8829,5.5078-7.0782,9.7852-12.586,12.832-5.5079,3.0469-11.52,4.5703-18.035,4.5703-10.453,0-18.902-3.3516-25.348-10.055-6.4453-6.7031-9.668-16.359-9.668-28.969zm13.008,0c-0.00001,9.5625,2.0859,16.723,6.2578,21.48,4.1718,4.7578,9.4218,7.1367,15.75,7.1367,6.2812,0.00001,11.508-2.3906,15.68-7.1719,4.1718-4.7812,6.2578-12.07,6.2578-21.867-0.00007-9.2343-2.0977-16.23-6.293-20.988-4.1954-4.7578-9.4102-7.1367-15.645-7.1367-6.3282,0.00006-11.578,2.3672-15.75,7.1016-4.1719,4.7344-6.2578,11.883-6.2578,21.445z"/>
  <path d="m205.14,177.51,0-74.672,11.32,0,0,10.477c2.3437-3.6562,5.4609-6.5976,9.3516-8.8242,3.8906-2.2265,8.3203-3.3398,13.289-3.3398,5.5312,0.00008,10.066,1.1485,13.605,3.4453,3.539,2.2969,6.0351,5.5079,7.4883,9.6328,5.9062-8.7187,13.594-13.078,23.062-13.078,7.4062,0.00008,13.101,2.0509,17.086,6.1524,3.9843,4.1016,5.9764,10.418,5.9766,18.949v51.258h-12.586v-47.039c-0.0001-5.0624-0.41026-8.707-1.2305-10.934-0.82041-2.2265-2.3087-4.0195-4.4648-5.3789-2.1563-1.3593-4.6876-2.039-7.5938-2.0391-5.2501,0.00007-9.6094,1.7462-13.078,5.2383-3.4688,3.4922-5.2032,9.0821-5.2031,16.77v43.383h-12.656v-48.516c-0.00006-5.6249-1.0313-9.8437-3.0938-12.656-2.0626-2.8124-5.4376-4.2187-10.125-4.2188-3.5625,0.00007-6.8555,0.93757-9.8789,2.8125-3.0235,1.8751-5.2149,4.6172-6.5742,8.2266-1.3594,3.6094-2.0391,8.8125-2.0391,15.609v38.742z"/>
  <path d="m382.35,160.6,13.078,1.6172c-2.0626,7.6406-5.8829,13.57-11.461,17.789-5.5782,4.2188-12.703,6.3281-21.375,6.3281-10.922,0-19.582-3.3633-25.98-10.09-6.3984-6.7266-9.5977-16.16-9.5976-28.301-0.00001-12.562,3.2344-22.312,9.7031-29.25,6.4687-6.9374,14.859-10.406,25.172-10.406,9.9843,0.00008,18.141,3.3985,24.469,10.195,6.328,6.7969,9.4921,16.359,9.4922,28.688-0.00008,0.75003-0.0235,1.875-0.0703,3.375h-55.688c0.46873,8.2032,2.789,14.484,6.9609,18.844,4.1718,4.3594,9.375,6.5391,15.609,6.5391,4.6406,0.00001,8.6015-1.2187,11.883-3.6562,3.2812-2.4375,5.8828-6.3281,7.8047-11.672zm-41.555-20.461,41.695,0c-0.56256-6.2812-2.1563-10.992-4.7812-14.133-4.0313-4.8749-9.2579-7.3124-15.68-7.3125-5.8125,0.00007-10.699,1.9454-14.66,5.8359-3.961,3.8907-6.1524,9.0938-6.5742,15.609z"/>
  <path d="m444.74,195.33,1.8281,11.18c-3.5625,0.75-6.75,1.125-9.5625,1.125-4.5938,0-8.1563-0.72656-10.688-2.1797-2.5313-1.4531-4.3125-3.3633-5.3438-5.7305s-1.5469-7.3476-1.5469-14.941v-42.961h-9.2812v-9.8438h9.2812v-18.492l12.586-7.5938v26.086h12.727v9.8438h-12.727v43.664c-0.00003,3.6094,0.22263,5.9297,0.66797,6.9609,0.44528,1.0313,1.1718,1.8516,2.1797,2.4609,1.0078,0.60939,2.4492,0.91408,4.3242,0.91406,1.4062,0.00002,3.2578-0.16405,5.5547-0.49218z"/>
  <path d="m231.43,305.22-39.938-103.08,14.766,0,26.789,74.883c2.1562,6,3.9609,11.625,5.4141,16.875,1.5937-5.625,3.4453-11.25,5.5547-16.875l27.844-74.883h13.922l-40.359,103.08z"/>
  <path d="m297.18,207.84,0-14.555,12.656,0,0,14.555zm0,88.523,0-74.672,12.656,0,0,74.672z"/>
  <path d="m326.97,265.5,12.516-1.9688c0.70311,5.0156,2.6601,8.8594,5.8711,11.531,3.2109,2.6719,7.6992,4.0078,13.465,4.0078,5.8125,0.00001,10.125-1.1836,12.938-3.5508,2.8124-2.3672,4.2187-5.1445,4.2188-8.332-0.00005-2.8594-1.2422-5.1094-3.7266-6.75-1.7344-1.125-6.0469-2.5547-12.938-4.2891-9.2813-2.3437-15.715-4.371-19.301-6.082-3.586-1.7109-6.3047-4.0781-8.1562-7.1016-1.8516-3.0234-2.7774-6.3632-2.7774-10.02,0-3.3281,0.76171-6.4101,2.2852-9.2461,1.5234-2.8359,3.5976-5.1913,6.2227-7.0664,1.9687-1.453,4.6523-2.6835,8.0508-3.6914,3.3984-1.0077,7.0429-1.5116,10.934-1.5117,5.8593,0.00008,11.004,0.84383,15.434,2.5312,4.4296,1.6876,7.6992,3.9727,9.8086,6.8555,2.1093,2.8829,3.5624,6.7384,4.3594,11.566l-12.375,1.6875c-0.56255-3.8437-2.1914-6.8437-4.8867-9-2.6954-2.1562-6.5039-3.2343-11.426-3.2344-5.8125,0.00007-9.961,0.96101-12.445,2.8828-2.4844,1.9219-3.7266,4.1719-3.7266,6.75-0.00002,1.6407,0.5156,3.1172,1.5469,4.4297,1.0312,1.3594,2.6484,2.4844,4.8516,3.375,1.2656,0.4688,4.9922,1.5469,11.18,3.2344,8.9531,2.3907,15.199,4.3477,18.738,5.8711,3.539,1.5235,6.3164,3.7383,8.332,6.6445,2.0156,2.9063,3.0234,6.5157,3.0234,10.828-0.00006,4.2188-1.2305,8.1914-3.6914,11.918-2.461,3.7266-6.0118,6.6094-10.652,8.6484-4.6407,2.0391-9.8907,3.0586-15.75,3.0586-9.7032,0-17.098-2.0156-22.184-6.0469-5.086-4.0312-8.332-10.008-9.7383-17.93z"/>
  <path d="m450.68,289.22,0-10.969c-5.8126,8.4375-13.711,12.656-23.695,12.656-4.4063,0-8.5196-0.84375-12.34-2.5312-3.8203-1.6875-6.6563-3.8086-8.5078-6.3633-1.8516-2.5547-3.1524-5.6836-3.9023-9.3867-0.51564-2.4844-0.77345-6.4218-0.77344-11.812v-46.266h12.656v41.414c-0.00002,6.6094,0.25779,11.063,0.77344,13.359,0.79685,3.3281,2.4844,5.9414,5.0625,7.8398s5.7656,2.8477,9.5625,2.8476c3.7968,0.00001,7.3593-0.97264,10.688-2.918,3.3281-1.9453,5.6835-4.5937,7.0664-7.9453,1.3828-3.3515,2.0742-8.2148,2.0742-14.59v-40.008h12.656v74.672z"/>
  <path d="m602.86,205.22-60.924-39.926-60.505,41.354,39.926-60.924-41.354-60.505,60.924,39.926,60.505-41.354-39.926,60.923z" transform="matrix(0.23063621,-0.23063621,0.23063621,0.23063621,348.93747,260.44935)"/>
  <path d="m602.86,205.22-60.924-39.926-60.505,41.354,39.926-60.924-41.354-60.505,60.924,39.926,60.505-41.354-39.926,60.923z" transform="matrix(0.23063621,-0.23063621,0.23063621,0.23063621,393.91984,330.88524)"/>
  <path d="m602.86,205.22-60.924-39.926-60.505,41.354,39.926-60.924-41.354-60.505,60.924,39.926,60.505-41.354-39.926,60.923z" transform="matrix(0.23063621,-0.23063621,0.23063621,0.23063621,446.20556,279.74239)"/>
  <path d="m602.86,205.22-60.924-39.926-60.505,41.354,39.926-60.924-41.354-60.505,60.924,39.926,60.505-41.354-39.926,60.923z" transform="matrix(0.23063621,-0.23063621,0.23063621,0.23063621,500.77699,315.45667)"/>
 </g>
</svg>
