<?xml version="1.0" encoding="UTF-8"?>
<!-- Created with Inkscape (http://www.inkscape.org/) -->
<svg version="1.1" viewBox="0 0 994.09 633.25" xmlns="http://www.w3.org/2000/svg" xmlns:cc="http://creativecommons.org/ns#" xmlns:dc="http://purl.org/dc/elements/1.1/" xmlns:rdf="http://www.w3.org/1999/02/22-rdf-syntax-ns#">
 <metadata>
  <rdf:RDF>
   <cc:Work rdf:about="">
    <dc:format>image/svg+xml</dc:format>
    <dc:type rdf:resource="http://purl.org/dc/dcmitype/StillImage"/>
   </cc:Work>
  </rdf:RDF>
 </metadata>
 <g transform="translate(165.94 -111.5)" display="none">
  <rect x="-164.23" y="213.2" width="990.67" height="529.86" color="#000000" display="inline" stroke="#f00" stroke-width="3.4102"/>
 </g>
 <g transform="translate(165.94 -111.5)" fill="none" stroke="#fff">
  <g stroke-width="1.25">
   <rect x="428.89" y="422.6" width="20" height="20" color="#000000"/>
   <rect x="468.89" y="422.6" width="20" height="20" color="#000000"/>
   <rect x="508.89" y="422.6" width="20" height="20" color="#000000"/>
   <rect x="428.89" y="510.6" width="20" height="20" color="#000000"/>
   <rect x="468.89" y="510.6" width="20" height="20" color="#000000"/>
   <rect x="508.89" y="510.6" width="20" height="20" color="#000000"/>
   <rect x="408.89" y="446.6" width="140" height="60" color="#000000"/>
   <rect x="648.89" y="586.6" width="40" height="40" color="#000000"/>
   <rect x="628.89" y="376.6" width="101.43" height="47.143" color="#000000"/>
   <rect x="667.46" y="345.17" width="25.714" height="30" color="#000000"/>
   <rect x="651.75" y="233.74" width="135.71" height="61.429" color="#000000"/>
   <rect x="744.6" y="240.88" width="31.429" height="41.429" color="#000000"/>
   <rect x="-115.4" y="410.88" width="40" height="31.429" color="#000000"/>
   <rect x="-18.253" y="379.46" width="65.714" height="62.857" color="#000000"/>
   <rect x="-143.97" y="253.74" width="112.86" height="47.143" color="#000000"/>
   <rect x="-136.82" y="260.46" width="98.571" height="32.857" color="#000000"/>
   <rect x="-1.1103" y="253.74" width="24.286" height="34.286" color="#000000"/>
   <rect x="-98.253" y="559.46" width="134.29" height="131.43" color="#000000"/>
   <rect x="-82.539" y="653.74" width="38.571" height="30" color="#000000"/>
   <rect x="-19.682" y="655.17" width="38.571" height="30" color="#000000"/>
   <rect x="600.32" y="431.17" width="191.43" height="24.286" color="#000000"/>
   <path d="m193.18 388.03v214.29h84.286v45.714" color="#000000"/>
   <path d="m192.82 513.38h-43.214" color="#000000"/>
   <path d="m192.82 435.53h-43.571" color="#000000"/>
   <path d="m183.47 474.1v35" color="#000000"/>
   <path d="m192.82 553.03h-43.214" color="#000000"/>
   <path d="m193.89 593.74h-43.929" color="#000000"/>
   <path d="m88.89 690.88h-244.29" color="#000000"/>
   <path d="m51.033 253.03h-200.71" color="#000000"/>
   <path d="m728.89 566.6h50v140h-180v-50h130z" color="#000000"/>
   <path d="m728.89 576.6h40v120h-160v-40" color="#000000"/>
   <path d="m648.89 656.6v30" color="#000000"/>
   <path d="m688.89 656.6v30" color="#000000"/>
   <path d="m728.89 656.6v30" color="#000000"/>
   <path d="m728.89 616.6h30" color="#000000"/>
   <path d="m728.89 656.6h30" color="#000000"/>
   <path d="m171.69 474.1v35" color="#000000"/>
   <path d="m159.9 474.1v35" color="#000000"/>
  </g>
  <path transform="matrix(2 0 0 2 -331.11 -476.61)" d="m260 519.86c0 1.3807-1.1193 2.5-2.5 2.5s-2.5-1.1193-2.5-2.5 1.1193-2.5 2.5-2.5 2.5 1.1193 2.5 2.5z" color="#000000" stroke-width=".625"/>
  <path transform="matrix(2 0 0 2 -354.68 -455.9)" d="m260 519.86c0 1.3807-1.1193 2.5-2.5 2.5s-2.5-1.1193-2.5-2.5 1.1193-2.5 2.5-2.5 2.5 1.1193 2.5 2.5z" color="#000000" stroke-width=".625"/>
  <path transform="matrix(2.9903 0 0 2.7883 -588.59 -867.66)" d="m260 519.86c0 1.3807-1.1193 2.5-2.5 2.5s-2.5-1.1193-2.5-2.5 1.1193-2.5 2.5-2.5 2.5 1.1193 2.5 2.5z" color="#000000" stroke-width=".4329"/>
  <path transform="matrix(2.8287 0 0 2.6267 -566 -800.83)" d="m260 519.86c0 1.3807-1.1193 2.5-2.5 2.5s-2.5-1.1193-2.5-2.5 1.1193-2.5 2.5-2.5 2.5 1.1193 2.5 2.5z" color="#000000" stroke-width=".45858"/>
  <rect x="156.03" y="440.17" width="30.714" height="28.571" color="#000000" stroke-width="1.25"/>
  <path transform="matrix(2.356 0 0 2.6153 -394.96 -710.03)" d="m175.77 376.7c0 1.8829-1.5264 3.4093-3.4093 3.4093-1.8829 0-3.4093-1.5264-3.4093-3.4093 0-1.8829 1.5264-3.4093 3.4093-3.4093 1.8829 0 3.4093 1.5264 3.4093 3.4093z" color="#000000" stroke-width=".50357"/>
  <g stroke-width="1.25">
   <path d="m-142.77 450.98 40 40v-40l-40 40v-40h40v40h-40" color="#000000"/>
   <path d="m-100.76 450.98 40 40v-40l-40 40v-40h40v40h-40" color="#000000"/>
   <path d="m-58.755 450.98 40 40v-40l-40 40v-40h40v40h-40" color="#000000"/>
   <path d="m-16.75 450.98 40 40v-40l-40 40v-40h40v40h-40" color="#000000"/>
   <path d="m-31.11 560.14v130.31" color="#000000"/>
   <path d="m473.18 234.83 40 40v-40l-40 40v-40h40v40h-40" color="#000000"/>
   <path d="m515.1 235.06 40 40v-40l-40 40v-40h40v40h-40" color="#000000"/>
   <path d="m195.38 390.88 40 40v-40l-40 40v-40h40v40h-40" color="#000000"/>
   <path d="m237.3 390.88 40 40v-40l-40 40v-40h40v40h-40" color="#000000"/>
   <path d="m-96.11 442.67v-11.429" color="#000000"/>
   <rect x="-111.82" y="414.1" width="32.857" height="25" color="#000000"/>
  </g>
  <path transform="matrix(1.5936 0 0 1.5936 -260.93 -297.51)" d="m188.75 444.42c0 8.5308-7.1954 15.446-16.071 15.446-8.876 0-16.071-6.9156-16.071-15.446s7.1954-15.446 16.071-15.446c8.876 0 16.071 6.9156 16.071 15.446z" color="#000000" stroke-width=".7844"/>
 </g>
 <g transform="translate(165.94 -111.5)" fill="none" stroke="#ccc">
  <path d="m388.89 226.6h420v500h-240v-80h-480v80h-240v-500h460" stroke-width="14.8"/>
  <path d="m808.89 426.6h-240v-40h-200" stroke-width="6.6"/>
  <g stroke-width="6.6">
   <path d="m288.89 386.6h-160" color="#000000"/>
   <path d="m48.89 366.6v80h-200" color="#000000"/>
   <path d="m48.89 306.6v-80" color="#000000"/>
   <path d="m148.89 386.6v260" color="#000000"/>
   <path d="m468.89 386.6v-20" color="#000000"/>
   <path d="m468.89 306.6v-80" color="#000000"/>
  </g>
 </g>
 <g transform="translate(165.94 -111.5)" fill="none" stroke="#000" stroke-width="8.6">
  <path d="m808.89 326.6v80"/>
  <g>
   <path d="m808.89 486.6v100" color="#000000"/>
   <path d="m388.89 646.6h140" color="#000000"/>
   <path d="m-151.11 426.6v-60" color="#000000"/>
   <path d="m-151.11 506.6v60" color="#000000"/>
   <path d="m268.89 646.6h-60" color="#000000"/>
   <path d="m148.89 646.6h-40" color="#000000"/>
  </g>
 </g>
</svg>
